<mxfile host="app.diagrams.net" agent="Mozilla/5.0 (Windows NT 10.0; Win64; x64) AppleWebKit/537.36 (KHTML, like Gecko) Chrome/138.0.0.0 Safari/537.36 Edg/138.0.0.0" version="28.0.4">
  <diagram name="第 1 页" id="VOu8pV2oIShs5EdclLPj">
    <mxGraphModel dx="500" dy="348" grid="1" gridSize="10" guides="1" tooltips="1" connect="1" arrows="1" fold="1" page="1" pageScale="1" pageWidth="827" pageHeight="1169" math="0" shadow="0">
      <root>
        <mxCell id="0" />
        <mxCell id="1" parent="0" />
        <mxCell id="oPt5sCqzlbKkoZ0zVyKE-3" style="edgeStyle=orthogonalEdgeStyle;rounded=0;orthogonalLoop=1;jettySize=auto;html=1;" edge="1" parent="1" source="oPt5sCqzlbKkoZ0zVyKE-1" target="oPt5sCqzlbKkoZ0zVyKE-2">
          <mxGeometry relative="1" as="geometry" />
        </mxCell>
        <mxCell id="oPt5sCqzlbKkoZ0zVyKE-1" value="SetUp&lt;div&gt;(Init)&lt;/div&gt;" style="rounded=1;whiteSpace=wrap;html=1;" vertex="1" parent="1">
          <mxGeometry x="240" y="110" width="120" height="60" as="geometry" />
        </mxCell>
        <mxCell id="oPt5sCqzlbKkoZ0zVyKE-4" style="edgeStyle=orthogonalEdgeStyle;rounded=0;orthogonalLoop=1;jettySize=auto;html=1;entryX=0;entryY=0.5;entryDx=0;entryDy=0;" edge="1" parent="1" source="oPt5sCqzlbKkoZ0zVyKE-2" target="oPt5sCqzlbKkoZ0zVyKE-5">
          <mxGeometry relative="1" as="geometry">
            <mxPoint x="460" y="280" as="targetPoint" />
          </mxGeometry>
        </mxCell>
        <mxCell id="oPt5sCqzlbKkoZ0zVyKE-2" value="Run" style="rounded=1;whiteSpace=wrap;html=1;" vertex="1" parent="1">
          <mxGeometry x="240" y="250" width="120" height="60" as="geometry" />
        </mxCell>
        <mxCell id="oPt5sCqzlbKkoZ0zVyKE-6" style="edgeStyle=orthogonalEdgeStyle;rounded=0;orthogonalLoop=1;jettySize=auto;html=1;exitX=0.5;exitY=0;exitDx=0;exitDy=0;entryX=1;entryY=0.5;entryDx=0;entryDy=0;" edge="1" parent="1" source="oPt5sCqzlbKkoZ0zVyKE-5" target="oPt5sCqzlbKkoZ0zVyKE-1">
          <mxGeometry relative="1" as="geometry" />
        </mxCell>
        <mxCell id="oPt5sCqzlbKkoZ0zVyKE-7" value="WakeUp" style="edgeLabel;html=1;align=center;verticalAlign=middle;resizable=0;points=[];" vertex="1" connectable="0" parent="oPt5sCqzlbKkoZ0zVyKE-6">
          <mxGeometry x="-0.552" y="-1" relative="1" as="geometry">
            <mxPoint as="offset" />
          </mxGeometry>
        </mxCell>
        <mxCell id="oPt5sCqzlbKkoZ0zVyKE-5" value="Sleep-Halt" style="rounded=1;whiteSpace=wrap;html=1;" vertex="1" parent="1">
          <mxGeometry x="440" y="250" width="120" height="60" as="geometry" />
        </mxCell>
        <mxCell id="oPt5sCqzlbKkoZ0zVyKE-9" style="edgeStyle=orthogonalEdgeStyle;rounded=0;orthogonalLoop=1;jettySize=auto;html=1;entryX=0;entryY=0.5;entryDx=0;entryDy=0;" edge="1" parent="1" source="oPt5sCqzlbKkoZ0zVyKE-8" target="oPt5sCqzlbKkoZ0zVyKE-10">
          <mxGeometry relative="1" as="geometry">
            <mxPoint x="540" y="430" as="targetPoint" />
          </mxGeometry>
        </mxCell>
        <mxCell id="oPt5sCqzlbKkoZ0zVyKE-8" value="Sleep" style="rounded=1;whiteSpace=wrap;html=1;" vertex="1" parent="1">
          <mxGeometry x="230" y="400" width="120" height="60" as="geometry" />
        </mxCell>
        <mxCell id="oPt5sCqzlbKkoZ0zVyKE-10" value="Sleep" style="rounded=1;whiteSpace=wrap;html=1;" vertex="1" parent="1">
          <mxGeometry x="560" y="400" width="120" height="60" as="geometry" />
        </mxCell>
      </root>
    </mxGraphModel>
  </diagram>
</mxfile>
